<?xml version="1.0" encoding="UTF-8"?>
<svg width="512px" height="512px" viewBox="0 0 512 512" version="1.1" xmlns="http://www.w3.org/2000/svg" xmlns:xlink="http://www.w3.org/1999/xlink">
    <!-- Generator: Sketch 61.2 (89653) - https://sketch.com -->
    <title>-filmweb-touchbar-icon</title>
    <desc>Created with Sketch.</desc>
    <defs>
        <linearGradient x1="13.3071669%" y1="13.7078788%" x2="88.0583075%" y2="85.1973816%" id="linearGradient-1">
            <stop stop-color="#FFCD05" offset="0%"></stop>
            <stop stop-color="#D89124" offset="100%"></stop>
        </linearGradient>
    </defs>
    <g id="-" stroke="none" stroke-width="1" fill="none" fill-rule="evenodd">
        <path d="M256,0 C397.384896,0 512,114.615104 512,256 C512,397.384896 397.384896,512 256,512 C114.615104,512 0,397.384896 0,256 C0,114.615104 114.615104,0 256,0 Z M184.081527,328.189391 C170.350434,328.209423 158.638171,332.943086 148.874971,342.418286 L148.874971,342.418286 L148.4215,342.877908 C138.973309,352.562843 134.231771,364.319543 134.231771,378.287543 L134.231771,378.287543 L134.227844,378.944233 C134.221284,392.701248 138.996571,404.350286 148.414171,414.149486 L148.414171,414.149486 L148.867686,414.603706 C158.574481,424.218177 170.319219,428.997486 184.283429,428.997486 L184.283429,428.997486 L184.897829,428.997486 L185.545735,428.993876 C198.908425,428.844678 210.570971,424.071024 220.094171,414.756571 L220.094171,414.756571 L220.551688,414.288881 C230.083423,404.437855 234.820686,392.725143 235.000686,378.850743 L235.000686,378.850743 L235.004855,378.194728 C235.01438,364.451673 230.109943,352.803086 220.591543,343.032686 L220.591543,343.032686 L220.139369,342.577162 C210.46093,332.935854 198.729931,328.192 184.736914,328.192 L184.736914,328.192 Z M330.1888,94.3835429 L308.041143,138.210743 C317.198629,142.789486 325.844114,148.618971 334.145829,155.765029 C336.917943,158.200686 339.646171,160.8192 342.3744,163.569371 C344.049371,165.397943 345.914514,167.387429 347.530971,169.391543 C351.970743,174.445714 356.103314,179.6096 359.760457,185.248914 C361.1648,187.530971 362.664229,189.8496 364.046629,192.1536 C367.301486,198.085486 370.197943,204.178286 372.4288,210.614857 C377.358629,223.875657 379.743086,238.416457 379.743086,253.7984 C379.743086,269.853257 377.1904,284.810971 371.858286,298.678857 C369.92,303.747657 367.550171,308.626286 364.982857,313.504914 C363.3152,316.423314 361.6256,319.136914 359.760457,321.923657 C356.000914,327.870171 351.875657,333.685029 347.121371,339.309714 C345.6,340.992 344.049371,342.8352 342.3744,344.685714 L342.3744,344.685714 L342.3744,345.124571 C340.955429,346.353371 339.492571,347.5968 338.102857,348.832914 C328.821029,357.024914 318.712686,363.739429 308.041143,368.910629 L308.041143,368.910629 L330.773943,412.613486 C344.9856,405.7088 358.414629,396.873143 370.746514,385.762743 C377.263158,379.508772 371.649123,385.122807 377.1904,379.472457 L377.1904,379.472457 L378.3168,378.426514 C397.443657,359.0144 411.377371,337.378743 419.949714,313.504914 C421.632,308.341029 422.999771,302.965029 424.206629,297.610971 C427.446857,283.7504 428.990171,269.099886 428.990171,253.7984 C429.092571,239.1552 427.600457,225.236114 424.704,212.150857 C423.277714,205.268114 421.449143,198.509714 419.474286,192.1536 C412.6208,174.109257 402.688,157.447314 389.7344,142.123886 C386.018743,137.8816 382.222629,133.763657 378.3168,129.806629 C377.848686,129.345829 377.4464,129.031314 377.1904,128.7168 L377.1904,128.7168 L374.557257,125.052343 C374.030629,124.884114 373.4016,124.6208 372.933486,124.481829 C362.832457,114.819657 352.087771,106.715429 340.677486,100.154514 C340.406857,99.7376 340.092343,99.4011429 339.770514,99.1085714 C336.5888,97.4262857 333.377829,95.7659429 330.1888,94.3835429 L330.1888,94.3835429 Z M107.504872,199.705662 C93.7030929,199.705884 81.9603429,204.475771 72.0603429,214.001371 L72.0603429,214.001371 L71.6065181,214.464765 C62.1506857,224.228893 57.3878857,236.064343 57.3878857,250.082743 L57.3878857,250.082743 L57.3822869,250.742888 C57.3415214,264.573007 62.1389714,276.329257 71.6141714,286.186057 L71.6141714,286.186057 L72.0700745,286.641965 C81.8283871,296.292437 93.6598787,301.1072 107.732114,301.1072 L107.732114,301.1072 L108.324571,301.1072 L108.976979,301.103579 C122.432118,300.95391 134.152707,296.164717 143.762286,286.763886 L143.762286,286.763886 L144.221169,286.295462 C153.781471,276.428025 158.539771,264.636 158.705371,250.6752 L158.705371,250.6752 L158.710821,250.025202 C158.74893,236.191353 153.787583,224.453373 144.259657,214.615771 L144.259657,214.615771 L143.804762,214.158238 C134.067828,204.474384 122.250296,199.709257 108.163657,199.709257 L108.163657,199.709257 Z M303.316114,228.469029 L218.2144,228.469029 L218.2144,281.322057 L303.316114,281.322057 L303.316114,228.469029 Z M182.769606,73.3074591 C168.984239,73.3063429 157.320914,78.0331429 147.514514,87.5227429 L147.514514,87.5227429 L147.063036,87.9826919 C137.655377,97.6741679 132.871314,109.417143 132.871314,123.413943 L132.871314,123.413943 L132.868737,124.070639 C132.890079,137.827879 137.665029,149.484229 147.061029,159.297829 L147.061029,159.297829 L147.513893,159.751368 C157.207392,169.351222 168.974178,174.109257 182.9888,174.109257 L182.9888,174.109257 L183.712914,174.109257 L184.358721,174.105653 C197.677791,173.956678 209.284238,169.189994 218.843429,159.868343 L218.843429,159.868343 L219.305053,159.394882 C228.768787,149.578695 233.490112,137.819487 233.706057,123.991771 L233.706057,123.991771 L233.708207,123.334058 C233.676111,109.555677 228.779886,97.8929143 219.333486,88.1225143 L219.333486,88.1225143 L218.879634,87.6670109 C209.165633,78.0265754 197.413472,73.3110857 183.427657,73.3110857 L183.427657,73.3110857 Z" id="Combined-Shape" fill="url(#linearGradient-1)"></path>
    </g>
</svg>